<svg width="181" height="30" viewBox="0 0 181 30" fill="none" xmlns="http://www.w3.org/2000/svg">
<path d="M3.57189 18.8679V25H0V9.60262H17.0921V12.6463H3.57189V16.1823H16.801V18.8679H3.57189V18.8679ZM25.3206 25C24.2093 25 23.2921 24.918 22.5689 24.7539C21.8457 24.5898 21.2635 24.3137 20.8227 23.9258C20.3817 23.5379 20.073 23.0232 19.8966 22.3817C19.7202 21.7401 19.632 20.9493 19.632 20.0093V14.5934C19.632 13.6534 19.7202 12.8627 19.8966 12.2211C20.073 11.5795 20.3817 11.0648 20.8227 10.6769C21.2635 10.289 21.8457 10.013 22.5689 9.84883C23.2921 9.68477 24.2093 9.6027 25.3206 9.6027H34.9249C36.0009 9.6027 36.9048 9.68477 37.6369 9.84883C38.3688 10.013 38.9554 10.289 39.3963 10.6769C39.8373 11.0648 40.1504 11.5795 40.3356 12.2211C40.5208 12.8626 40.6134 13.6533 40.6134 14.5934V20.0093C40.6134 20.9492 40.5208 21.74 40.3356 22.3817C40.1504 23.0232 39.8373 23.5379 39.3963 23.9258C38.9554 24.3138 38.3688 24.5898 37.6369 24.7539C36.9049 24.918 36.0009 25 34.9249 25H25.3206ZM37.0415 14.6157C37.0415 13.8548 36.8829 13.3364 36.5654 13.0604C36.2479 12.7844 35.6921 12.6463 34.8984 12.6463H25.3206C24.5268 12.6463 23.9712 12.7844 23.6536 13.0604C23.3361 13.3364 23.1775 13.8548 23.1775 14.6157V20.0317C23.1775 20.4196 23.2127 20.7366 23.2833 20.9827C23.3538 21.2289 23.4729 21.4267 23.6405 21.5759C23.808 21.7251 24.0285 21.8294 24.3018 21.8891C24.5753 21.9489 24.9148 21.9786 25.3206 21.9786H34.8984C35.7099 21.9786 36.2698 21.8444 36.5785 21.5759C36.8873 21.3073 37.0415 20.7925 37.0415 20.0317V14.6157V14.6157ZM59.3724 25L53.0753 19.9645H47.3339V25H43.7355V9.60262H58.6051C59.5752 9.60262 60.391 9.6884 61.0526 9.86005C61.7141 10.0316 62.2475 10.3039 62.6533 10.6769C63.059 11.0499 63.3545 11.5422 63.5397 12.1539C63.7249 12.7656 63.8175 13.5043 63.8175 14.3695V15.3095C63.8175 16.2494 63.7072 17.0179 63.4868 17.6146C63.2664 18.2114 62.9092 18.6813 62.4153 19.0245C61.9213 19.3677 61.2863 19.6027 60.5103 19.7295C59.7342 19.8563 58.7817 19.9198 57.6528 19.9198L64.3997 25H59.3726L59.3724 25ZM60.272 14.8843C60.272 14.1383 60.1705 13.5826 59.9676 13.217C59.7648 12.8515 59.2754 12.6687 58.4992 12.6687H47.3338V17.4357H58.4992C59.1343 17.4357 59.5885 17.3014 59.8618 17.0328C60.1353 16.7642 60.2719 16.2943 60.2719 15.6229V14.8843H60.272ZM66.569 25V9.60262H84.0579V12.6463H70.1409V16.0481H83.6611V18.5323H70.1409V21.9787H84.0579V25H66.569ZM92.4981 25C91.4045 25 90.4961 24.918 89.7729 24.7539C89.0498 24.5898 88.4721 24.3175 88.0399 23.937C87.6077 23.5565 87.2991 23.0455 87.1139 22.4039C86.9286 21.7624 86.836 20.9642 86.836 20.0093V14.5934C86.836 13.6385 86.9286 12.8403 87.1139 12.1988C87.2991 11.5572 87.6077 11.0425 88.0399 10.6545C88.472 10.2666 89.0497 9.99433 89.7729 9.83769C90.4961 9.68106 91.4046 9.6027 92.4981 9.6027H102.711C103.381 9.6027 103.968 9.68106 104.47 9.83769C104.973 9.99433 105.401 10.1883 105.754 10.4195C106.106 10.6508 106.389 10.897 106.6 11.158C106.812 11.4192 106.971 11.6541 107.077 11.863L104.801 13.8324C104.642 13.534 104.387 13.2617 104.034 13.0156C103.681 12.7694 103.161 12.6463 102.473 12.6463H92.5244C91.7307 12.6463 91.175 12.7881 90.8575 13.0715C90.54 13.355 90.3813 13.8623 90.3813 14.5933V20.0317C90.3813 20.3599 90.4078 20.6434 90.4606 20.8821C90.5135 21.1208 90.615 21.3222 90.765 21.4863C90.9148 21.6504 91.1309 21.7736 91.4132 21.8556C91.6954 21.9376 92.0658 21.9786 92.5244 21.9786H102.605C103.311 21.9786 103.831 21.8556 104.166 21.6094C104.501 21.3632 104.748 21.0909 104.907 20.7925L107.182 22.7396C107.076 22.9486 106.918 23.1836 106.706 23.4446C106.495 23.7057 106.212 23.9519 105.859 24.1832C105.507 24.4145 105.079 24.6084 104.576 24.765C104.073 24.9217 103.487 25 102.817 25H92.498H92.4981ZM127.158 25L124.883 21.4192H113.903L111.627 25H107.553L117.528 9.60262H121.258L131.233 25H127.158H127.158ZM119.406 12.6239L115.279 19.0022H123.534L119.406 12.6239H119.406ZM151.87 20.5464C151.87 21.3669 151.765 22.0607 151.553 22.6277C151.341 23.1947 151.002 23.6535 150.534 24.0041C150.067 24.3548 149.454 24.6084 148.695 24.765C147.937 24.9217 147.02 25 145.944 25H133.085C133.12 24.4928 133.16 23.9893 133.204 23.4894C133.248 22.9896 133.288 22.4861 133.323 21.9787H145.706C146.182 21.9787 146.583 21.9527 146.909 21.9004C147.236 21.8482 147.492 21.7549 147.677 21.6207C147.862 21.4864 147.994 21.3111 148.074 21.0947C148.153 20.8785 148.193 20.6062 148.193 20.2779C148.193 19.6363 148.025 19.1925 147.69 18.9463C147.355 18.7001 146.72 18.5771 145.785 18.5771H138.403C137.309 18.5771 136.397 18.495 135.665 18.3309C134.933 18.1668 134.342 17.9131 133.892 17.5699C133.442 17.2269 133.12 16.7941 132.926 16.272C132.732 15.7498 132.635 15.138 132.635 14.4368V13.922C132.635 13.1611 132.732 12.5046 132.926 11.9526C133.12 11.4006 133.447 10.953 133.905 10.6098C134.364 10.2667 134.968 10.0131 135.718 9.84891C136.467 9.68485 137.398 9.60278 138.509 9.60278H151.262C151.191 10.125 151.121 10.636 151.05 11.1358C150.98 11.6357 150.9 12.1466 150.812 12.6689H138.509C137.627 12.6689 137.032 12.7957 136.723 13.0494C136.414 13.3029 136.26 13.7357 136.26 14.3474C136.26 14.9591 136.414 15.3956 136.723 15.6566C137.032 15.9177 137.627 16.0483 138.509 16.0483H145.785C146.914 16.0483 147.866 16.1266 148.642 16.2833C149.418 16.4399 150.045 16.6823 150.521 17.0106C150.997 17.3388 151.341 17.7529 151.553 18.2527C151.764 18.7525 151.87 19.3381 151.87 20.0095V20.5466L151.87 20.5464ZM168.91 25V18.644H158.062V25H154.543V9.60254H158.062V15.8689H168.91V9.60254H172.429V25H168.91Z" fill="#FF5C49"/>
<path d="M53.1411 5.44925C53.6678 5.7224 54.1159 5.91182 54.4852 6.0228C54.8525 6.13213 55.2118 6.18671 55.5629 6.18671C55.9161 6.18671 56.2007 6.12004 56.4166 5.9886C56.6306 5.85716 56.7375 5.68812 56.7375 5.48156C56.7375 5.18629 56.3561 4.85169 55.5912 4.48296C55.4681 4.42316 55.3732 4.37537 55.3065 4.34299L54.7274 4.06636C54.1642 3.79669 53.7465 3.49107 53.4761 3.15141C53.2037 2.81175 53.0684 2.4258 53.0684 1.99562C53.0684 1.4118 53.3287 0.933828 53.8494 0.559965C54.3681 0.186102 55.0401 0 55.8636 0C56.1684 0 56.4974 0.0308064 56.8506 0.0905233C57.2058 0.150319 57.5992 0.244239 58.0332 0.370466V2.069C57.6195 1.85052 57.2279 1.68155 56.8566 1.56196C56.4852 1.44245 56.1704 1.38273 55.91 1.38273C55.6215 1.38273 55.3953 1.43566 55.2299 1.53984C55.0644 1.64395 54.9816 1.78732 54.9816 1.96655C54.9816 2.09294 55.03 2.21063 55.1289 2.31996C55.2278 2.43094 55.3751 2.52991 55.5729 2.62044L56.578 3.08988C57.4196 3.4842 57.9846 3.84787 58.2752 4.18082C58.5659 4.51535 58.7112 4.90967 58.7112 5.36726C58.7112 6.07399 58.4266 6.64588 57.8574 7.0812C57.2863 7.51652 56.5316 7.73327 55.589 7.73327C55.2701 7.73327 54.923 7.70428 54.5476 7.64796C54.1742 7.59164 53.7604 7.50293 53.3124 7.38334L53.1409 5.44917L53.1411 5.44925Z" fill="#1669FE"/>
<path d="M33.125 7.4977L34.905 0.0102539H35.0525L38.2876 4.73216L41.3392 0.0102539H41.4925L43.2848 7.4977H41.3392L40.6125 4.18586L38.3118 7.76406H38.1745L35.7043 4.13641L34.9515 7.4977H33.125Z" fill="#1669FE"/>
<path d="M29.7822 7.49767V0.24585H31.8288V7.49767H29.7822Z" fill="#1669FE"/>
<path d="M20.1543 7.49767L23.234 3.74711L20.1967 0.24585H22.6951L24.4631 2.31659L26.124 0.24585H28.3521L25.5913 3.59687L28.9698 7.49767H26.4511L24.3682 5.03774L22.3944 7.49767H20.1543Z" fill="#1669FE"/>
<path d="M10.7872 7.49785L15.1607 0.020752H15.29L19.5665 7.49785H17.4252L16.8823 6.44293H13.4028L12.8478 7.49785H10.7871H10.7872ZM13.9962 5.19322H16.2485L15.1364 2.92279L13.9961 5.19322H13.9962Z" fill="#1669FE"/>
<path d="M0 7.4977L1.78011 0.0102539H1.92738L5.16262 4.73216L8.21407 0.0102539H8.36751L10.1597 7.4977H8.21407L7.48754 4.18586L5.1868 7.76406H5.04962L2.5793 4.13641L1.82652 7.4977H0Z" fill="#1669FE"/>
<path d="M46.4918 2.41724V4.21934C46.4918 4.85695 46.6316 5.33398 46.908 5.65096C47.1845 5.96819 47.6034 6.12704 48.1661 6.12704C48.7068 6.12704 49.12 5.9783 49.4043 5.68327C49.6886 5.3884 49.7704 4.95885 49.7641 4.39454L49.7421 2.41148L51.7439 2.40942L51.8127 4.23545C51.852 5.27702 51.6887 6.35003 50.8856 6.9566C50.0352 7.59895 49.1953 7.70812 48.0717 7.70812C46.9361 7.70812 46.053 7.41949 45.4224 6.84104C44.7928 6.26338 44.4492 5.40736 44.4492 4.36176V2.42104L46.4918 2.41724Z" fill="#1669FE"/>
<path fill-rule="evenodd" clip-rule="evenodd" d="M44.4453 0.254883H46.4708V1.93407H44.4453V0.254883Z" fill="#FF5C49"/>
<path fill-rule="evenodd" clip-rule="evenodd" d="M49.7236 0.254883H51.7491V1.93407H49.7236V0.254883Z" fill="#FF5C49"/>
<path d="M178.273 5.97099C178.273 5.98102 178.271 5.98915 178.267 5.99674C178.262 6.00424 178.253 6.01056 178.239 6.01562C178.224 6.02004 178.204 6.02375 178.178 6.02628C178.152 6.02881 178.117 6.03007 178.074 6.03007C178.036 6.03007 178.005 6.02881 177.981 6.02628C177.957 6.02375 177.938 6.02004 177.923 6.01435C177.909 6.00867 177.898 6.00116 177.889 5.99113C177.881 5.98173 177.875 5.96917 177.869 5.95479L177.61 5.39262C177.58 5.32856 177.548 5.27026 177.515 5.21678C177.483 5.16339 177.444 5.11757 177.399 5.07863C177.354 5.03969 177.301 5.01022 177.24 4.98818C177.179 4.96678 177.105 4.95611 177.02 4.95611H176.77V5.97107C176.77 5.9811 176.767 5.98923 176.76 5.99682C176.753 6.00432 176.743 6.01001 176.73 6.01443C176.715 6.01886 176.697 6.02265 176.673 6.02573C176.649 6.02889 176.619 6.03015 176.583 6.03015C176.546 6.03015 176.516 6.02889 176.492 6.02573C176.468 6.02257 176.449 6.01878 176.435 6.01443C176.42 6.01001 176.41 6.0044 176.404 5.99682C176.398 5.98987 176.396 5.98118 176.396 5.97107V3.76596C176.396 3.71825 176.41 3.68492 176.44 3.66549C176.47 3.64661 176.502 3.63721 176.535 3.63721H177.134C177.205 3.63721 177.264 3.63847 177.311 3.64163C177.358 3.64479 177.4 3.64858 177.438 3.65166C177.547 3.66801 177.643 3.69313 177.727 3.72702C177.81 3.76154 177.88 3.80483 177.936 3.85759C177.993 3.91036 178.036 3.97071 178.064 4.03911C178.092 4.10696 178.106 4.18232 178.106 4.26455C178.106 4.3437 178.094 4.41527 178.068 4.47869C178.042 4.54157 178.006 4.59742 177.958 4.64576C177.91 4.69418 177.853 4.7362 177.786 4.77207C177.719 4.80714 177.645 4.83739 177.562 4.8618C177.609 4.87941 177.65 4.90082 177.688 4.9272C177.726 4.95351 177.761 4.98558 177.794 5.02199C177.826 5.05904 177.857 5.10177 177.886 5.14948C177.915 5.19719 177.944 5.25122 177.973 5.31157L178.226 5.83662C178.246 5.88062 178.259 5.91198 178.264 5.9296C178.27 5.94721 178.273 5.96095 178.273 5.97107L178.273 5.97099ZM177.71 4.29662C177.71 4.20365 177.685 4.12458 177.636 4.05989C177.587 3.99582 177.504 3.9493 177.388 3.9211C177.351 3.91233 177.31 3.90664 177.265 3.90293C177.219 3.89914 177.16 3.89724 177.085 3.89724H176.77V4.69987H177.135C177.234 4.69987 177.319 4.68984 177.391 4.66969C177.463 4.649 177.523 4.62072 177.57 4.58494C177.618 4.54844 177.653 4.50587 177.676 4.45681C177.699 4.40784 177.71 4.35444 177.71 4.2967L177.71 4.29662Z" fill="#18202A"/>
<path d="M177.335 1.90308C178.291 1.90308 179.157 2.23112 179.784 2.76139C180.411 3.29165 180.799 4.02437 180.799 4.83355C180.799 5.64273 180.411 6.37537 179.784 6.90571C179.157 7.43598 178.291 7.76403 177.335 7.76403C176.378 7.76403 175.512 7.43598 174.885 6.90571C174.258 6.37537 173.87 5.64265 173.87 4.83355C173.87 4.02429 174.258 3.29165 174.885 2.76139C175.512 2.23112 176.378 1.90308 177.335 1.90308ZM179.545 2.96384C178.979 2.4854 178.198 2.1895 177.335 2.1895C176.471 2.1895 175.69 2.48547 175.124 2.96384C174.559 3.44229 174.209 4.10336 174.209 4.83355C174.209 5.56358 174.559 6.22474 175.124 6.70326C175.69 7.18171 176.471 7.47761 177.335 7.47761C178.198 7.47761 178.979 7.18163 179.545 6.70326C180.111 6.22474 180.46 5.56366 180.46 4.83355C180.46 4.10344 180.111 3.44229 179.545 2.96384Z" fill="#18202A"/>
</svg>
